<svg width="1175" height="114" viewBox="0 0 1175 114" fill="none" xmlns="http://www.w3.org/2000/svg">
<rect x="29" y="59.9233" width="1146" height="10.7725" rx="5.38624" fill="#F7F7F7"/>
<line opacity="0.1" x1="602.5" y1="59.9263" x2="602.5" y2="70.7026" stroke="#011212"/>
<line opacity="0.1" x1="793.5" y1="59.9292" x2="793.5" y2="70.7056" stroke="#011212"/>
<line opacity="0.1" x1="984.5" y1="59.9321" x2="984.5" y2="70.7085" stroke="#011212"/>
<g filter="url(#filter0_d_77_2429)">
<rect x="29" y="59.9224" width="573" height="10.7734" rx="5.38672" fill="url(#paint0_linear_77_2429)" style="mix-blend-mode:luminosity" shape-rendering="crispEdges"/>
</g>
<g filter="url(#filter1_d_77_2429)">
<circle cx="606.539" cy="64.8395" r="10.4611" fill="url(#paint1_linear_77_2429)" style="mix-blend-mode:luminosity" shape-rendering="crispEdges"/>
<circle cx="606.539" cy="64.8395" r="11.9611" stroke="white" stroke-width="3" shape-rendering="crispEdges"/>
</g>
<g opacity="0.9">
<rect x="565.215" y="0.46582" width="82.6499" height="35.0346" rx="3" fill="#282323"/>
<path d="M606.541 46.0654L599.858 34.49L613.224 34.49L606.541 46.0654Z" fill="#282323"/>
</g>
<path d="M596.787 20.6174C596.787 21.1841 596.645 21.7167 596.362 22.2154C596.09 22.7141 595.682 23.1334 595.138 23.4734C594.605 23.8134 593.971 24.0174 593.234 24.0854V25.4624H592.129V24.0854C591.064 23.9834 590.202 23.6491 589.545 23.0824C588.888 22.5157 588.559 21.7677 588.559 20.8384H590.633C590.667 21.2804 590.809 21.6487 591.058 21.9434C591.307 22.2267 591.664 22.4081 592.129 22.4874V18.7474C591.37 18.5547 590.752 18.3621 590.276 18.1694C589.8 17.9654 589.392 17.6481 589.052 17.2174C588.723 16.7867 588.559 16.1974 588.559 15.4494C588.559 14.5087 588.888 13.7324 589.545 13.1204C590.202 12.4971 591.064 12.1344 592.129 12.0324V10.6554H593.234V12.0324C594.231 12.1231 595.03 12.4404 595.631 12.9844C596.243 13.5171 596.589 14.2537 596.668 15.1944H594.594C594.56 14.8431 594.424 14.5314 594.186 14.2594C593.948 13.9761 593.631 13.7834 593.234 13.6814V17.3534C593.993 17.5347 594.611 17.7274 595.087 17.9314C595.563 18.1241 595.965 18.4357 596.294 18.8664C596.623 19.2857 596.787 19.8694 596.787 20.6174ZM590.531 15.3474C590.531 15.8121 590.667 16.1747 590.939 16.4354C591.222 16.6961 591.619 16.9057 592.129 17.0644V13.6304C591.642 13.6871 591.251 13.8627 590.956 14.1574C590.673 14.4521 590.531 14.8487 590.531 15.3474ZM593.234 22.4874C593.733 22.4081 594.124 22.2097 594.407 21.8924C594.69 21.5637 594.832 21.1727 594.832 20.7194C594.832 20.2661 594.69 19.9147 594.407 19.6654C594.135 19.4047 593.744 19.1951 593.234 19.0364V22.4874ZM599.361 13.3584V11.5904H602.897V23.9834H600.942V13.3584H599.361ZM605.525 14.6504C605.593 13.5964 605.995 12.7747 606.732 12.1854C607.48 11.5961 608.432 11.3014 609.588 11.3014C610.381 11.3014 611.067 11.4431 611.645 11.7264C612.223 12.0097 612.659 12.3951 612.954 12.8824C613.249 13.3697 613.396 13.9194 613.396 14.5314C613.396 15.2341 613.209 15.8347 612.835 16.3334C612.461 16.8321 612.013 17.1664 611.492 17.3364V17.4044C612.161 17.6084 612.682 17.9824 613.056 18.5264C613.43 19.0591 613.617 19.7447 613.617 20.5834C613.617 21.2521 613.464 21.8471 613.158 22.3684C612.852 22.8897 612.399 23.3034 611.798 23.6094C611.197 23.9041 610.478 24.0514 609.639 24.0514C608.415 24.0514 607.406 23.7397 606.613 23.1164C605.831 22.4817 605.412 21.5751 605.355 20.3964H607.225C607.27 20.9971 607.503 21.4901 607.922 21.8754C608.341 22.2494 608.908 22.4364 609.622 22.4364C610.313 22.4364 610.846 22.2494 611.22 21.8754C611.594 21.4901 611.781 20.9971 611.781 20.3964C611.781 19.6031 611.526 19.0421 611.016 18.7134C610.517 18.3734 609.747 18.2034 608.704 18.2034H608.262V16.6054H608.721C609.639 16.5941 610.336 16.4411 610.812 16.1464C611.299 15.8517 611.543 15.3871 611.543 14.7524C611.543 14.2084 611.367 13.7777 611.016 13.4604C610.665 13.1317 610.166 12.9674 609.52 12.9674C608.885 12.9674 608.392 13.1317 608.041 13.4604C607.69 13.7777 607.48 14.1744 607.412 14.6504H605.525ZM615.653 17.6254C615.653 15.6647 615.981 14.1347 616.639 13.0354C617.307 11.9247 618.452 11.3694 620.073 11.3694C621.693 11.3694 622.832 11.9247 623.49 13.0354C624.158 14.1347 624.493 15.6647 624.493 17.6254C624.493 19.6087 624.158 21.1614 623.49 22.2834C622.832 23.3941 621.693 23.9494 620.073 23.9494C618.452 23.9494 617.307 23.3941 616.639 22.2834C615.981 21.1614 615.653 19.6087 615.653 17.6254ZM622.589 17.6254C622.589 16.7074 622.526 15.9311 622.402 15.2964C622.288 14.6617 622.05 14.1461 621.688 13.7494C621.325 13.3414 620.787 13.1374 620.073 13.1374C619.359 13.1374 618.82 13.3414 618.458 13.7494C618.095 14.1461 617.851 14.6617 617.727 15.2964C617.613 15.9311 617.557 16.7074 617.557 17.6254C617.557 18.5774 617.613 19.3764 617.727 20.0224C617.84 20.6684 618.078 21.1897 618.441 21.5864C618.815 21.9831 619.359 22.1814 620.073 22.1814C620.787 22.1814 621.325 21.9831 621.688 21.5864C622.062 21.1897 622.305 20.6684 622.419 20.0224C622.532 19.3764 622.589 18.5774 622.589 17.6254Z" fill="white"/>
<defs>
<filter id="filter0_d_77_2429" x="0" y="34.9224" width="633" height="70.7734" filterUnits="userSpaceOnUse" color-interpolation-filters="sRGB">
<feFlood flood-opacity="0" result="BackgroundImageFix"/>
<feColorMatrix in="SourceAlpha" type="matrix" values="0 0 0 0 0 0 0 0 0 0 0 0 0 0 0 0 0 0 127 0" result="hardAlpha"/>
<feOffset dx="1" dy="5"/>
<feGaussianBlur stdDeviation="15"/>
<feComposite in2="hardAlpha" operator="out"/>
<feColorMatrix type="matrix" values="0 0 0 0 0.32549 0 0 0 0 0.843137 0 0 0 0 0.670588 0 0 0 0.5 0"/>
<feBlend mode="normal" in2="BackgroundImageFix" result="effect1_dropShadow_77_2429"/>
<feBlend mode="normal" in="SourceGraphic" in2="effect1_dropShadow_77_2429" result="shape"/>
</filter>
<filter id="filter1_d_77_2429" x="564.078" y="26.3784" width="86.9219" height="86.9224" filterUnits="userSpaceOnUse" color-interpolation-filters="sRGB">
<feFlood flood-opacity="0" result="BackgroundImageFix"/>
<feColorMatrix in="SourceAlpha" type="matrix" values="0 0 0 0 0 0 0 0 0 0 0 0 0 0 0 0 0 0 127 0" result="hardAlpha"/>
<feOffset dx="1" dy="5"/>
<feGaussianBlur stdDeviation="15"/>
<feComposite in2="hardAlpha" operator="out"/>
<feColorMatrix type="matrix" values="0 0 0 0 0.32549 0 0 0 0 0.843137 0 0 0 0 0.670588 0 0 0 0.5 0"/>
<feBlend mode="normal" in2="BackgroundImageFix" result="effect1_dropShadow_77_2429"/>
<feBlend mode="normal" in="SourceGraphic" in2="effect1_dropShadow_77_2429" result="shape"/>
</filter>
<linearGradient id="paint0_linear_77_2429" x1="51.92" y1="60.4251" x2="52.0349" y2="73.086" gradientUnits="userSpaceOnUse">
<stop stop-color="#85FED6"/>
<stop offset="1" stop-color="#4EDAAC"/>
</linearGradient>
<linearGradient id="paint1_linear_77_2429" x1="596.915" y1="55.3548" x2="606.539" y2="75.3006" gradientUnits="userSpaceOnUse">
<stop stop-color="#85FED6"/>
<stop offset="1" stop-color="#4EDAAC"/>
</linearGradient>
</defs>
</svg>
