<svg width="18" height="18" viewBox="0 0 18 18" fill="none" xmlns="http://www.w3.org/2000/svg">
<path d="M7.85677 0.796434C8.54379 0.317823 9.45622 0.317823 10.1432 0.796434L11.5334 1.76489C11.7704 1.92998 12.0403 2.04179 12.3246 2.09263L13.9924 2.39082C14.8166 2.53818 15.4618 3.18337 15.6092 4.00759L15.9074 5.67538C15.9582 5.95969 16.07 6.22963 16.2351 6.46661L17.2036 7.85677C17.6822 8.54379 17.6822 9.45622 17.2036 10.1432L16.2351 11.5334C16.07 11.7704 15.9582 12.0403 15.9074 12.3246L15.6092 13.9924C15.4618 14.8166 14.8166 15.4618 13.9924 15.6092L12.3246 15.9074C12.0403 15.9582 11.7704 16.07 11.5334 16.2351L10.1432 17.2036C9.45621 17.6822 8.54378 17.6822 7.85677 17.2036L6.46661 16.2351C6.22963 16.07 5.95969 15.9582 5.67538 15.9074L4.00759 15.6092C3.18337 15.4618 2.53818 14.8166 2.39082 13.9924L2.09263 12.3246C2.04179 12.0403 1.92998 11.7704 1.76489 11.5334L0.796434 10.1432C0.317823 9.45621 0.317823 8.54378 0.796434 7.85677L1.76489 6.46661C1.92998 6.22963 2.04179 5.95969 2.09263 5.67538L2.39082 4.00759C2.53818 3.18337 3.18337 2.53818 4.00759 2.39082L5.67538 2.09263C5.95969 2.04179 6.22963 1.92998 6.46661 1.76489L7.85677 0.796434Z" fill="url(#paint0_linear_77_2559)"/>
<path d="M12.6965 7.48428L8.55198 11.6285C8.24508 11.9355 7.74722 11.9355 7.44002 11.6285L5.30058 9.48893C4.99356 9.18196 4.99356 8.68405 5.30058 8.37703C5.60766 8.06995 6.10548 8.06995 6.41243 8.37691L7.99617 9.96067L11.5845 6.37231C11.8916 6.06523 12.3894 6.06546 12.6964 6.37231C13.0034 6.67934 13.0034 7.17708 12.6965 7.48428Z" fill="white"/>
<defs>
<linearGradient id="paint0_linear_77_2559" x1="0.72" y1="0.84" x2="9" y2="18" gradientUnits="userSpaceOnUse">
<stop stop-color="#8BF9D5"/>
<stop offset="1" stop-color="#4EDAAC"/>
</linearGradient>
</defs>
</svg>
